<svg width="61" height="61" viewBox="0 0 61 61" fill="none" xmlns="http://www.w3.org/2000/svg">
<g clip-path="url(#clip0_125_2)">
<path d="M39.7505 40.1857C39.758 50.5432 31.3617 58.9357 21.0005 58.9357C10.6392 58.9357 2.24296 50.5432 2.25046 40.1857C2.24296 29.8357 10.6392 21.4357 21.0005 21.4357C31.3617 21.4357 39.758 29.8357 39.7505 40.1857Z" fill="#FF15A1" stroke="#373737" stroke-width="1.87499"/>
<path d="M30.3755 6.06442C26.244 6.06258 22.2277 7.42591 18.951 9.9424C15.6744 12.4589 13.3211 15.9875 12.257 19.9796C11.1929 23.9717 11.4776 28.2035 13.067 32.017C14.6563 35.8306 17.4612 39.0121 21.0455 41.0669C21.0305 40.7744 21.0005 40.4857 21.0005 40.1894C21.0002 36.9026 21.8643 33.6735 23.506 30.826C25.1478 27.9786 27.5095 25.613 30.3542 23.9665C33.1989 22.32 36.4265 21.4506 39.7134 21.4454C43.0002 21.4402 46.2306 22.2994 49.0805 23.9369C48.8614 19.123 46.7951 14.5787 43.3113 11.2493C39.8275 7.91985 35.1944 6.06148 30.3755 6.06067V6.06442Z" fill="#1583FF"/>
<path d="M39.7505 21.4357C37.2879 21.4347 34.8493 21.919 32.574 22.8609C30.2987 23.8028 28.2313 25.1839 26.49 26.9252C24.7487 28.6665 23.3676 30.7339 22.4257 33.0092C21.4838 35.2845 20.9995 37.7231 21.0005 40.1857C21.0005 40.4857 21.0305 40.7744 21.0455 41.0669C23.8953 42.7044 27.1257 43.5637 30.4126 43.5585C33.6994 43.5533 36.9271 42.6838 39.7718 41.0373C42.6165 39.3908 44.9781 37.0252 46.6199 34.1778C48.2617 31.3304 49.1257 28.1012 49.1255 24.8144C49.1255 24.5182 49.0955 24.2294 49.0805 23.9369C46.244 22.2985 43.0261 21.4359 39.7505 21.4357Z" fill="#00CF2D"/>
<path d="M49.0805 23.9369C49.0955 24.2294 49.1255 24.5182 49.1255 24.8144C49.1261 28.1018 48.2621 31.3315 46.6202 34.1795C44.9782 37.0274 42.6161 39.3934 39.7708 41.04C36.9256 42.6866 33.6972 43.5559 30.4099 43.5606C27.1225 43.5654 23.8917 42.7053 21.0417 41.0669C21.2617 45.8808 23.3289 50.4247 26.8134 53.7534C30.2979 57.0822 34.9315 58.9396 39.7505 58.9394C43.8819 58.9413 47.8983 57.5779 51.1749 55.0614C54.4515 52.545 56.8049 49.0163 57.869 45.0242C58.9331 41.0321 58.6483 36.8003 57.0589 32.9868C55.4696 29.1733 52.6647 25.9917 49.0805 23.9369Z" fill="#F8FF15"/>
<path d="M21.0455 41.0669C21.1898 44.2013 22.119 47.2493 23.7479 49.9311C25.3767 52.6129 27.6531 54.8426 30.368 56.4157C33.0867 54.8475 35.367 52.6203 36.9988 49.9393C38.6306 47.2583 39.5614 44.2097 39.7055 41.0744C36.8673 42.7071 33.6497 43.5645 30.3755 43.5607C27.1002 43.5616 23.8823 42.704 21.0455 41.0669Z" fill="#EF0000"/>
<path d="M30.368 23.9594C27.5184 25.6024 25.1522 27.9674 23.5076 30.816C21.8631 33.6647 20.9983 36.8964 21.0005 40.1857C21.0005 40.4819 21.0305 40.7707 21.0455 41.0632C23.8822 42.702 27.1002 43.5655 30.3763 43.5668C33.6524 43.5681 36.8712 42.7073 39.7092 41.0707C39.7205 40.7744 39.7505 40.4819 39.7505 40.1857C39.7521 36.8942 38.8856 33.6606 37.2382 30.811C35.5909 27.9614 33.2211 25.6005 30.368 23.9594Z" fill="#383027"/>
<path d="M21.0005 21.4357C17.588 21.4357 14.4005 22.3619 11.648 23.9482C11.487 27.3896 12.2793 30.8086 13.9375 33.8285C15.5956 36.8484 18.0553 39.3519 21.0455 41.0632C21.0305 40.7744 21.0005 40.4857 21.0005 40.1894C20.9977 36.8995 21.8621 33.667 23.5067 30.8176C25.1513 27.9683 27.5179 25.6027 30.368 23.9594C27.5227 22.3068 24.2909 21.4361 21.0005 21.4357Z" fill="#5100CC"/>
<path d="M30.3755 6.06442C25.5519 6.06326 20.9136 7.92184 17.4255 11.2535C13.9373 14.5852 11.868 19.1334 11.648 23.9519C9.46454 25.154 7.54281 26.7795 5.99523 28.7333C4.44766 30.6871 3.30532 32.93 2.63509 35.3306C1.96485 37.7313 1.78017 40.2415 2.09186 42.7144C2.40355 45.1873 3.20534 47.5732 4.45032 49.7324C5.69529 51.8917 7.35844 53.7809 9.34243 55.2896C11.3264 56.7983 13.5914 57.8961 16.0048 58.5188C18.4183 59.1415 20.9316 59.2765 23.3979 58.916C25.8641 58.5556 28.2337 57.7068 30.368 56.4194C34.6754 58.9009 39.7922 59.5695 44.5926 58.2783C49.3931 56.9871 53.484 53.8419 55.9655 49.5344C58.4469 45.227 59.1156 40.1102 57.8244 35.3097C56.5332 30.5093 53.3879 26.4183 49.0805 23.9369C48.8614 19.123 46.7951 14.5787 43.3113 11.2493C39.8275 7.91985 35.1944 6.06148 30.3755 6.06067V6.06442Z" stroke="#373737" stroke-width="3.74998"/>
</g>
<defs>
<clipPath id="clip0_125_2">
<rect width="60" height="60" fill="white" transform="translate(0.375458 0.810669)"/>
</clipPath>
</defs>
</svg>
