<svg width="16" height="16" viewBox="0 0 16 16" fill="none" xmlns="http://www.w3.org/2000/svg">
<g id="Star">
<g id="Star 4">
<path d="M7.87434 1.26441C8.1454 0.81152 8.5448 1.03216 8.5741 1.55916C8.71927 4.16932 9.06659 11.3811 8.50325 11.8722C8.50067 11.8745 8.50109 11.8741 8.49846 11.8763C8.41449 11.9465 4.91868 14.8639 4.28166 14.3009C3.79912 13.8745 4.47615 11.3275 4.84741 10.0727C4.97086 9.65547 4.82425 9.20287 4.47885 8.93826C3.49798 8.18682 1.625 6.66933 1.625 6.0384C1.625 5.3962 4.2711 5.20444 5.5871 5.14878C6.0197 5.13048 6.3998 4.84769 6.53973 4.43793C6.83475 3.57398 7.37156 2.10444 7.87434 1.26441Z" fill="#F8B319"/>
<path d="M7.87434 1.26441C8.1454 0.81152 8.5448 1.03216 8.5741 1.55916C8.71927 4.16932 9.06659 11.3811 8.50325 11.8722C8.50067 11.8745 8.50109 11.8741 8.49846 11.8763C8.41449 11.9465 4.91868 14.8639 4.28166 14.3009C3.79912 13.8745 4.47615 11.3275 4.84741 10.0727C4.97086 9.65547 4.82425 9.20287 4.47885 8.93826C3.49798 8.18682 1.625 6.66933 1.625 6.0384C1.625 5.3962 4.2711 5.20444 5.5871 5.14878C6.0197 5.13048 6.3998 4.84769 6.53973 4.43793C6.83475 3.57398 7.37156 2.10444 7.87434 1.26441Z" stroke="#F8B319" stroke-width="2" stroke-linecap="round" stroke-linejoin="round"/>
</g>
</g>
</svg>
