<svg width="61" height="61" viewBox="0 0 61 61" fill="none" xmlns="http://www.w3.org/2000/svg">
<path d="M29.1262 30.8107H13.9223M13.4913 32.8037L10.9794 40.3072C9.60366 44.4167 8.91578 46.4714 9.40943 47.7367C9.83811 48.8357 10.7588 49.6687 11.895 49.9859C13.2032 50.3509 15.1792 49.4617 19.1312 47.6834L44.4672 36.2822C48.3247 34.5462 50.2535 33.6784 50.8495 32.4727C51.3675 31.4252 51.3675 30.1959 50.8495 29.1484C50.2535 27.9429 48.3247 27.0749 44.4672 25.339L19.0875 13.9182C15.1474 12.1452 13.1774 11.2587 11.8704 11.6224C10.7354 11.9382 9.81476 12.7691 9.38458 13.8659C8.88923 15.1289 9.56976 17.1792 10.9308 21.2798L13.4962 29.0089C13.7299 29.7132 13.8468 30.0654 13.893 30.4254C13.9339 30.7452 13.9335 31.0687 13.8917 31.3882C13.8447 31.7482 13.7269 32.0999 13.4913 32.8037Z" stroke="black" stroke-width="5" stroke-linecap="round" stroke-linejoin="round"/>
</svg>
