<svg width="109" height="47" viewBox="0 0 109 47" fill="none" xmlns="http://www.w3.org/2000/svg">
<g filter="url(#filter0_d_16_14)">
<path d="M22.2605 38.0747L19.2924 38.0357V19.2781L15.5647 29.8461L13.054 30.2609L11.4947 24.1467L10.0111 17.5044L10.7935 23.9122L10.4612 37.924L6.79004 37.8777C6.79004 37.2473 7.34699 5.08244 7.34699 5.08244H9.79835L13.946 23.4961L13.7205 26.9219L18.2653 5.08244H21.385L22.2605 38.0747ZM37.2943 9.14246L37.9889 19.7033L37.5854 30.1734L34.8894 37.3111L28.9898 38.0747L25.1607 31.0037L25.1378 13.7162C25.0173 13.266 26.7831 6.74209 26.7831 6.74209L31.8985 4.47754L34.2311 5.07176L29.7721 7.93686L27.1162 13.8247L27.1993 26.3179C27.1993 26.3179 29.0399 33.6394 29.2271 33.6394C29.4144 33.6394 31.6383 35.6214 31.6383 35.6214L33.8952 33.866L35.7056 27.7139L36.4945 19.4484L35.125 12.7679L31.9715 13.372L30.0213 20.0913L30.6851 23.2988L33.0086 22.7326L31.9195 18.6944L33.4442 18.3547C33.4442 18.3547 34.0668 23.2797 34.0668 23.4499C34.0668 23.5731 32.5111 31.1491 32.5111 31.1491L31.2038 32.4517L30.0836 25.8846L29.1496 20.0918L30.4569 11.278L34.8301 6.76246L37.2943 9.14246ZM52.0732 4.9296L50.4025 15.5703H48.3365L50.3231 16.0749L46.8675 38.0739L44.8917 37.9254L38.9492 4.9292H42.7462L45.2195 24.3698L45.7682 29.6379L45.5911 26.108L48.6031 4.92908H52.0733L52.0732 4.9296ZM60.5544 35.0836L62.4681 35.0927L62.3348 38.0746L55.5443 38.0629L55.3918 35.3952L57.079 35.2829L57.2552 30.2247L56.9128 11.5392L56.5439 18.1219C56.4426 14.6879 56.364 10.8164 56.3129 8.33198L54.004 8.42799V5.15886L62.6774 5.09816L62.5441 8.18247L60.5128 8.15713L60.5544 35.0836ZM77.1967 28.2583C77.329 28.7112 77.3821 32.3346 77.1165 32.7867C76.8517 33.2396 72.6985 38.0194 72.6985 38.0194L70.4589 38.0647L68.4011 38.0728L68.832 33.6362L69.1342 30.6878L69.7204 27.9376L70.7237 25.5952L73.3285 27.1722L74.2013 31.088L72.6108 32.5454L71.5499 32.2619L72.9085 31.002L71.1519 28.8226L70.29 32.8987L70.3731 34.541L71.0523 35.3426L72.4666 35.1542L74.5546 33.0881L75.5269 29.2764L73.8808 25.9838L71.76 23.5307L69.6939 23.0497L68.5007 25.1232L67.7612 30.7737C67.7612 30.7737 67.3577 37.8617 67.3194 37.7984V37.8654L65.6404 38.0249C65.5081 37.9451 65.6404 5.10901 65.6404 5.10901L70.4119 5.67426L72.6652 7.48584L74.786 11.9017L74.5523 12.9398L73.5051 11.4488C73.5051 11.4488 71.1186 8.65521 70.8538 8.58005C70.589 8.5049 68.3795 8.05196 68.3795 8.05196L67.1863 10.7693V14.3926L69.749 16.053L71.7403 14.9207L72.6432 13.34L70.8757 11.6416L69.6824 12.2268L70.9643 13.5104L70.2348 14.3972L68.4234 13.3365L68.7548 10.9632L69.4843 9.94417L72.2014 11.3962L74.367 13.9813L72.1356 17.7893L69.4843 18.8084L72.4003 20.62L74.7869 22.2051C74.7869 22.2051 76.1901 24.4361 76.3224 24.7759C76.4547 25.1156 77.0646 27.8049 77.197 28.2578L77.1967 28.2583ZM82.8858 34.9741L88.6887 34.677V37.9732L79.3945 38.0746L79.6328 24.8771L78.7782 5.12807L88.2969 5.10905L88.0403 8.33198L81.3079 8.16261L83.2416 8.68527L82.1259 19.0178L87.0151 19.3194L87.1666 22.9426L83.5046 23.0676L83.2673 21.2252L82.8858 34.9741ZM99.4279 9.60806L96.7063 8.2369L94.7662 9.48788L94.4886 12.3013L94.7991 13.9001C95.6718 14.9273 99.5593 21.016 99.5593 21.016L102.527 26.2454C102.527 26.2454 103.016 32.6886 102.999 33.0001C102.983 33.3116 101.106 37.2347 101.106 37.2347L96.1687 38.0763L92.3386 36.3317L90.6413 33.2039L91.4511 27.6275L95.545 25.8575L98.1835 28.1646L98.5642 31.6991L96.6862 33.7806L94.2723 33.1329L94.4622 30.7552L95.9266 29.9436L95.8691 30.7932L94.9561 32.1329L96.4735 31.9119L97.099 29.728L95.4218 28.7116L93.9637 30.0993L93.4159 32.3684L93.6761 33.8683L97.3618 34.7841L99.1503 32.468L99.5776 30.9426L99.2735 27.2532L96.5721 21.744L93.1831 17.33L91.3991 11.5637L92.5403 6.7701L96.3064 4.87059L100.643 6.26007L102.084 8.23651L102.127 12.261L100.415 15.0355L97.1646 14.934L95.472 12.1042L96.1914 10.1097L97.4468 9.71296L99.0729 11.0436L98.8181 12.261L97.361 11.6179L98.9039 13.6034L99.9675 12.3878L99.4279 9.60806Z" fill="#3DD2CC"/>
</g>
<defs>
<filter id="filter0_d_16_14" x="0.790039" y="0.477539" width="108.21" height="45.5988" filterUnits="userSpaceOnUse" color-interpolation-filters="sRGB">
<feFlood flood-opacity="0" result="BackgroundImageFix"/>
<feColorMatrix in="SourceAlpha" type="matrix" values="0 0 0 0 0 0 0 0 0 0 0 0 0 0 0 0 0 0 127 0" result="hardAlpha"/>
<feOffset dy="2"/>
<feGaussianBlur stdDeviation="3"/>
<feComposite in2="hardAlpha" operator="out"/>
<feColorMatrix type="matrix" values="0 0 0 0 0.239216 0 0 0 0 0.823529 0 0 0 0 0.8 0 0 0 0.45 0"/>
<feBlend mode="normal" in2="BackgroundImageFix" result="effect1_dropShadow_16_14"/>
<feBlend mode="normal" in="SourceGraphic" in2="effect1_dropShadow_16_14" result="shape"/>
</filter>
</defs>
</svg>
