<svg width="97" height="35" viewBox="0 0 97 35" fill="none" xmlns="http://www.w3.org/2000/svg">
<path d="M16.2605 34.4696L13.2924 34.4306V15.673L9.56473 26.241L7.05405 26.6558L5.49469 20.5416L4.01108 13.8993L4.79352 20.3071L4.46119 34.3189L0.790039 34.2726C0.790039 33.6422 1.34699 1.47733 1.34699 1.47733H3.79835L7.94605 19.891L7.72053 23.3168L12.2653 1.47733H15.385L16.2605 34.4696ZM31.2943 5.53735L31.9889 16.0982L31.5854 26.5683L28.8894 33.706L22.9898 34.4696L19.1607 27.3986L19.1378 10.1111C19.0173 9.66085 20.7831 3.13698 20.7831 3.13698L25.8985 0.872437L28.2311 1.46666L23.7721 4.33176L21.1162 10.2196L21.1993 22.7128C21.1993 22.7128 23.0399 30.0343 23.2271 30.0343C23.4144 30.0343 25.6383 32.0163 25.6383 32.0163L27.8952 30.2609L29.7056 24.1088L30.4945 15.8433L29.125 9.16278L25.9715 9.76693L24.0213 16.4862L24.6851 19.6937L27.0086 19.1275L25.9195 15.0893L27.4442 14.7496C27.4442 14.7496 28.0668 19.6746 28.0668 19.8448C28.0668 19.968 26.5111 27.544 26.5111 27.544L25.2038 28.8466L24.0836 22.2795L23.1496 16.4867L24.4569 7.67285L28.8301 3.15736L31.2943 5.53735ZM46.0732 1.3245L44.4025 11.9652H42.3365L44.3231 12.4698L40.8675 34.4688L38.8917 34.3203L32.9492 1.32409H36.7462L39.2195 20.7647L39.7682 26.0328L39.5911 22.5029L42.6031 1.32397H46.0733L46.0732 1.3245ZM54.5544 31.4785L56.4681 31.4876L56.3348 34.4695L49.5443 34.4578L49.3918 31.7901L51.079 31.6778L51.2552 26.6196L50.9128 7.93408L50.5439 14.5168C50.4426 11.0828 50.364 7.21134 50.3129 4.72687L48.004 4.82289V1.55376L56.6774 1.49306L56.5441 4.57737L54.5128 4.55202L54.5544 31.4785ZM71.1967 24.6532C71.329 25.1061 71.3821 28.7295 71.1165 29.1816C70.8517 29.6345 66.6985 34.4143 66.6985 34.4143L64.4589 34.4596L62.4011 34.4677L62.832 30.0311L63.1342 27.0827L63.7204 24.3325L64.7237 21.9901L67.3285 23.5671L68.2013 27.4829L66.6108 28.9403L65.5499 28.6568L66.9085 27.3969L65.1519 25.2175L64.29 29.2936L64.3731 30.9359L65.0523 31.7375L66.4666 31.5491L68.5546 29.483L69.5269 25.6713L67.8808 22.3787L65.76 19.9256L63.6939 19.4446L62.5007 21.5181L61.7612 27.1686C61.7612 27.1686 61.3577 34.2566 61.3194 34.1933V34.2603L59.6404 34.4198C59.5081 34.34 59.6404 1.50391 59.6404 1.50391L64.4119 2.06915L66.6652 3.88074L68.786 8.29662L68.5523 9.3347L67.5051 7.84371C67.5051 7.84371 65.1186 5.05011 64.8538 4.97495C64.589 4.89979 62.3795 4.44686 62.3795 4.44686L61.1863 7.16424V10.7875L63.749 12.4479L65.7403 11.3156L66.6432 9.7349L64.8757 8.03652L63.6824 8.62167L64.9643 9.90526L64.2348 10.7921L62.4234 9.73141L62.7548 7.35814L63.4843 6.33907L66.2014 7.79105L68.367 10.3762L66.1356 14.1842L63.4843 15.2033L66.4003 17.0149L68.7869 18.6C68.7869 18.6 70.1901 20.831 70.3224 21.1708C70.4547 21.5105 71.0646 24.1998 71.197 24.6527L71.1967 24.6532ZM76.8858 31.369L82.6887 31.0719V34.3681L73.3945 34.4695L73.6328 21.272L72.7782 1.52297L82.2969 1.50395L82.0403 4.72687L75.3079 4.55751L77.2416 5.08016L76.1259 15.4127L81.0151 15.7143L81.1666 19.3375L77.5046 19.4625L77.2673 17.6201L76.8858 31.369ZM93.4279 6.00296L90.7063 4.6318L88.7662 5.88277L88.4886 8.69623L88.7991 10.295C89.6718 11.3221 93.5593 17.4109 93.5593 17.4109L96.5266 22.6403C96.5266 22.6403 97.0159 29.0835 96.9995 29.395C96.9831 29.7065 95.1059 33.6296 95.1059 33.6296L90.1687 34.4712L86.3386 32.7266L84.6413 29.5988L85.4511 24.0224L89.545 22.2524L92.1835 24.5595L92.5642 28.094L90.6862 30.1755L88.2723 29.5278L88.4622 27.1501L89.9266 26.3385L89.8691 27.1881L88.9561 28.5278L90.4735 28.3068L91.099 26.1229L89.4218 25.1065L87.9637 26.4942L87.4159 28.7633L87.6761 30.2632L91.3618 31.179L93.1503 28.8629L93.5776 27.3375L93.2735 23.6481L90.5721 18.1389L87.1831 13.7249L85.3991 7.95856L86.5403 3.165L90.3064 1.26549L94.643 2.65497L96.0837 4.63141L96.1266 8.6559L94.4148 11.4304L91.1646 11.3289L89.472 8.49913L90.1914 6.50461L91.4468 6.10786L93.0729 7.43848L92.8181 8.6559L91.361 8.0128L92.9039 9.99834L93.9675 8.7827L93.4279 6.00296Z" fill="#3DD2CC"/>
</svg>
