<svg width="36" height="36" viewBox="0 0 36 36" fill="none" xmlns="http://www.w3.org/2000/svg">
<path d="M19.1854 8.86803C19.5881 8.46526 19.8111 7.92944 19.8111 7.35766C19.8111 6.17813 18.8509 5.22156 17.675 5.22156C16.4991 5.22156 15.5389 6.18173 15.5389 7.35766C15.5389 7.92944 15.7619 8.46526 16.1646 8.86803L23.4576 16.1646L21.9472 17.6749L14.6542 10.3784C13.8811 9.60524 13.4028 8.53359 13.4028 7.35406C13.4028 4.99501 15.3159 3.08187 17.675 3.08187C20.034 3.08187 21.9472 4.99501 21.9472 7.35406C21.9472 8.53359 21.4689 9.60164 20.6957 10.3748L19.1854 8.86803Z" fill="#3DD2CC"/>
<path d="M19.1853 8.86804L19.4766 9.15932C19.9585 8.68104 20.2246 8.03374 20.2246 7.35407C20.2246 5.94799 19.0811 4.80442 17.675 4.80442C16.2689 4.80442 15.1289 5.94799 15.1253 7.35407C15.1253 8.03374 15.3914 8.67744 15.8733 9.15932L22.875 16.1646L21.9508 17.0888L14.9455 10.0871C14.2443 9.38588 13.8163 8.42212 13.8163 7.35767C13.8163 7.24978 13.7732 7.1419 13.6941 7.06638C13.6149 6.99086 13.5107 6.94411 13.4028 6.94411C13.2949 6.94411 13.187 6.98727 13.1115 7.06638C13.036 7.14549 12.9892 7.24978 12.9892 7.35767C12.9892 7.46555 13.0324 7.57343 13.1115 7.64895C13.1906 7.72447 13.2949 7.77122 13.4028 7.77122C13.5107 7.77122 13.6185 7.72807 13.6941 7.64895C13.7696 7.56984 13.8163 7.46555 13.8163 7.35767C13.8199 5.22516 15.5461 3.50262 17.675 3.49903C19.8075 3.50262 21.53 5.22876 21.5336 7.35767C21.5336 8.42572 21.1021 9.38588 20.4044 10.0871L20.6957 10.3784L20.987 10.0871L19.4766 8.57675L19.1853 8.86804L19.4766 9.15932L19.1853 8.86804L18.8941 9.15932L20.4044 10.6697C20.4799 10.7452 20.5878 10.792 20.6957 10.792C20.8036 10.792 20.9115 10.7488 20.987 10.6697C21.8357 9.82101 22.3607 8.64867 22.3607 7.35407C22.3607 4.76486 20.2642 2.66832 17.675 2.66832C15.0858 2.66832 12.9892 4.76486 12.9892 7.35407C12.9892 7.46195 13.0324 7.56984 13.1115 7.64536C13.1906 7.72087 13.2949 7.76762 13.4028 7.76762C13.5107 7.76762 13.6185 7.72447 13.6941 7.64536C13.7696 7.56624 13.8163 7.46195 13.8163 7.35407C13.8163 7.24619 13.7732 7.1383 13.6941 7.06278C13.6149 6.98727 13.5107 6.94052 13.4028 6.94052C13.2949 6.94052 13.187 6.98367 13.1115 7.06278C13.036 7.1419 12.9892 7.24619 12.9892 7.35407C12.9892 8.64508 13.5143 9.82101 14.3629 10.6697L21.6595 17.9626C21.8213 18.1245 22.0838 18.1245 22.2456 17.9626L23.756 16.4523C23.8315 16.3767 23.8783 16.2689 23.8783 16.161C23.8783 16.0531 23.8351 15.9452 23.756 15.8697L16.4559 8.57675C16.1286 8.2495 15.9524 7.82157 15.9488 7.35767C15.9488 6.40829 16.722 5.63512 17.6714 5.63512C18.6207 5.63512 19.3939 6.40829 19.3939 7.35767C19.3939 7.82157 19.2177 8.2495 18.8905 8.57675C18.8113 8.65587 18.7682 8.76015 18.7682 8.86804C18.7682 8.97952 18.8113 9.08381 18.8905 9.15932L19.1853 8.86804Z" fill="#3DD2CC"/>
<path d="M26.4782 19.1853C26.881 19.5881 27.4168 19.811 27.9886 19.811C29.1645 19.811 30.1247 18.8509 30.1247 17.6749C30.1247 16.4954 29.1681 15.5388 27.9922 15.5388C27.4204 15.5388 26.8846 15.7618 26.4818 16.1645L19.1853 23.4575L17.6749 21.9471L24.9715 14.6542C25.7446 13.881 26.8127 13.4027 27.9922 13.4027C30.3513 13.4027 32.2644 15.3159 32.2644 17.6785C32.2644 20.0412 30.3513 21.9507 27.9922 21.9507C26.8127 21.9507 25.7446 21.4724 24.9715 20.6993L26.4782 19.1853Z" fill="#3DD2CC"/>
<path d="M26.4782 19.1853L26.1869 19.4766C26.6652 19.9584 27.3125 20.2246 27.9922 20.2246C29.3983 20.2246 30.5418 19.081 30.5418 17.6749C30.5418 16.2688 29.4019 15.1253 27.9958 15.1253C27.8843 15.1253 27.78 15.1684 27.7045 15.2475C27.6254 15.3266 27.5822 15.4309 27.5822 15.5388H27.9958V15.1253C27.3161 15.1253 26.6724 15.3914 26.1905 15.8696L19.1853 22.8749L18.2611 21.9507L25.2627 14.9454C25.964 14.2478 26.9241 13.8163 27.9922 13.8163C28.1828 13.8163 28.3518 13.6832 28.395 13.4962C28.4381 13.3092 28.3482 13.115 28.1756 13.0323L27.9922 13.4027V13.8163C30.1247 13.8199 31.8472 15.546 31.8508 17.6785C31.8472 19.811 30.1211 21.5335 27.9922 21.5371C26.9241 21.5371 25.964 21.1056 25.2627 20.408L24.9714 20.6992L25.2627 20.9905L26.7731 19.4802L26.4782 19.1853L26.1869 19.4766L26.4782 19.1853L26.1869 18.894L24.6766 20.4044C24.5147 20.5662 24.5147 20.8287 24.6766 20.9905C25.5216 21.8392 26.6976 22.3642 27.9922 22.3642C30.5814 22.3642 32.6779 20.2677 32.6779 17.6785C32.6779 15.0893 30.5814 12.9892 27.9922 12.9892C27.8016 12.9892 27.6326 13.1222 27.5894 13.3092C27.5463 13.4962 27.6362 13.6904 27.8088 13.7731L27.9922 13.4027V12.9892C26.6976 12.9892 25.5252 13.5142 24.6766 14.3629L17.3836 21.6558C17.3081 21.7313 17.2614 21.8392 17.2614 21.9471C17.2614 22.055 17.3045 22.1629 17.3836 22.2384L18.894 23.7488C19.0558 23.9106 19.3183 23.9106 19.4802 23.7488L26.7731 16.4558C27.1039 16.1286 27.5283 15.9524 27.9922 15.9524C28.1001 15.9524 28.208 15.9092 28.2835 15.8301C28.359 15.751 28.4057 15.6467 28.4057 15.5388H27.9922V15.9524C28.9416 15.9524 29.7147 16.7255 29.7111 17.6749C29.7111 18.6243 28.938 19.3974 27.9886 19.3974C27.5247 19.3974 27.0968 19.2212 26.7695 18.894C26.6904 18.8149 26.5861 18.7717 26.4782 18.7717C26.3667 18.7717 26.2625 18.8149 26.1869 18.894L26.4782 19.1853Z" fill="#3DD2CC"/>
<path d="M8.86799 16.1646C8.46163 15.7618 7.9294 15.5388 7.35762 15.5388C6.17809 15.5388 5.22152 16.499 5.22152 17.6749C5.22152 18.8545 6.17809 19.811 7.35762 19.8146C7.9294 19.8146 8.46522 19.5917 8.86799 19.1889L16.1645 11.8924L17.6749 13.4027L10.3784 20.6957C9.60519 21.4688 8.53355 21.9471 7.35402 21.9471C4.99137 21.9471 3.08183 20.034 3.08183 17.6713C3.08183 15.3123 4.99496 13.3991 7.35402 13.3991C8.53355 13.3991 9.6016 13.8774 10.3748 14.6506L8.86799 16.1646Z" fill="#3DD2CC"/>
<path d="M8.86808 16.1646L9.15936 15.8733C8.68108 15.3914 8.03378 15.1253 7.35411 15.1253C5.94802 15.1253 4.80446 16.2688 4.80446 17.6749C4.80446 19.081 5.94443 20.2246 7.35411 20.2282C7.46559 20.2282 7.56988 20.185 7.64539 20.1059C7.72451 20.0268 7.76766 19.9225 7.76766 19.8146H7.35411V20.2282C8.03378 20.2282 8.67748 19.9621 9.15936 19.4802L16.1646 12.4749L17.0888 13.3991L10.0872 20.4044C9.38592 21.102 8.42216 21.5336 7.3577 21.5372C7.1743 21.5372 7.01607 21.6558 6.96213 21.8285C6.90819 22.0011 6.97651 22.1917 7.12755 22.2924L7.3577 21.9507V21.5372C5.2252 21.53 3.50266 19.8074 3.49906 17.6749C3.50266 15.5424 5.2252 13.8199 7.3577 13.8163C8.42575 13.8163 9.38592 14.2478 10.0872 14.9455L10.3784 14.6542L10.0872 14.3629L8.57679 15.8733L8.86808 16.1646L9.15936 15.8733L8.86808 16.1646L9.15936 16.4558L10.6697 14.9455C10.7488 14.8664 10.792 14.7621 10.792 14.6542C10.792 14.5427 10.7488 14.4384 10.6697 14.3629C9.82105 13.5178 8.64871 12.9892 7.35411 12.9928C4.7649 12.9928 2.66836 15.0893 2.66836 17.6785C2.66836 20.2677 4.7649 22.3679 7.35411 22.3679C7.53751 22.3679 7.69574 22.2492 7.74968 22.0766C7.80362 21.904 7.7353 21.7134 7.58426 21.6127L7.35411 21.9543V22.3679C8.64512 22.3679 9.82105 21.8428 10.6697 20.9941L17.9663 13.7012C18.1281 13.5394 18.1281 13.2769 17.9663 13.115L16.4559 11.6047C16.2941 11.4428 16.0316 11.4428 15.8697 11.6047L8.57679 18.894C8.24595 19.2213 7.8216 19.3975 7.3577 19.4011C7.24982 19.4011 7.14194 19.4442 7.06642 19.5233C6.9909 19.6025 6.94415 19.7067 6.94415 19.8146H7.3577V19.4011C6.40833 19.4011 5.63516 18.6279 5.63516 17.6749C5.63516 16.7256 6.40833 15.956 7.3577 15.9524C7.8216 15.9524 8.24595 16.1286 8.57679 16.4558C8.73862 16.6177 9.00113 16.6177 9.16296 16.4558L8.86808 16.1646Z" fill="#3DD2CC"/>
<path d="M27.9922 10.7308H27.5787H27.9922V10.3173C26.2193 10.3173 24.54 10.9466 23.2094 12.0902L23.4791 12.403L23.7704 12.1117L23.2418 11.5831L22.9505 11.8744L23.2633 12.1441C24.4069 10.8135 25.0326 9.13056 25.0326 7.35767C25.0326 3.30124 21.735 0 17.675 0C13.6149 0 10.3173 3.30124 10.3173 7.35767C10.3173 9.13056 10.9502 10.81 12.0902 12.1405L12.403 11.8708L12.1117 11.5795L11.5831 12.1082L11.8744 12.3994L12.1441 12.0866C10.8135 10.943 9.12696 10.3173 7.35407 10.3173C3.30124 10.3173 0 13.6185 0 17.675C0 21.735 3.30124 25.0326 7.35767 25.0362C7.46555 25.0362 7.57344 24.9931 7.64896 24.9139C7.72448 24.8348 7.77123 24.7305 7.77123 24.6227H7.35767V25.0362C9.13056 25.0362 10.81 24.4069 12.1405 23.2633L11.8708 22.9505L11.5795 23.2418L12.1082 23.7704L12.3994 23.4791L12.0866 23.2094C10.943 24.54 10.3173 26.2265 10.3173 27.9958C10.3173 32.0523 13.6185 35.3535 17.675 35.3535C21.735 35.3535 25.0326 32.0523 25.0326 27.9958C25.0326 27.8879 24.9895 27.7801 24.9104 27.7045C24.8312 27.629 24.727 27.5823 24.6191 27.5823V27.9958H25.0326C25.0326 26.2229 24.4033 24.5435 23.2597 23.213L22.9469 23.4827L23.2382 23.774L23.7668 23.2453L23.4755 22.9541L23.2058 23.2669C24.5364 24.4141 26.2229 25.0362 27.9958 25.0362C32.0523 25.0362 35.3535 21.735 35.3535 17.6785C35.3535 13.6185 32.0523 10.3209 27.9958 10.3173C27.8879 10.3173 27.7801 10.3604 27.7045 10.4395C27.629 10.5187 27.5823 10.623 27.5823 10.7308H27.9922V11.1444C31.592 11.1516 34.5156 14.0752 34.5228 17.675C34.5156 21.2747 31.592 24.1983 27.9922 24.2055C26.4135 24.2055 24.9283 23.6517 23.7416 22.634C23.5762 22.4938 23.3317 22.501 23.1806 22.6556L22.652 23.1842C22.501 23.3353 22.4902 23.5834 22.6304 23.7452C23.6481 24.9319 24.2055 26.4135 24.2055 27.9886C24.2055 28.0965 24.2487 28.2044 24.3278 28.2799C24.4069 28.3554 24.5112 28.4022 24.6191 28.4022V27.9886H24.2055C24.1983 31.592 21.2747 34.5156 17.675 34.5228C14.0752 34.5156 11.148 31.592 11.1444 27.9922C11.1444 26.4135 11.6982 24.9283 12.7159 23.7416C12.8561 23.5762 12.849 23.3317 12.6943 23.1806L12.1657 22.652C12.0147 22.501 11.7665 22.4902 11.6047 22.6304C10.418 23.6481 8.93637 24.2055 7.36127 24.2055C7.25338 24.2055 7.1455 24.2487 7.06998 24.3278C6.99446 24.4069 6.94771 24.5112 6.94771 24.6191H7.36127V24.2055C3.75795 24.1983 0.834301 21.2747 0.827109 17.675C0.834301 14.0752 3.75795 11.1516 7.35767 11.1444C8.93637 11.1444 10.4216 11.6982 11.6083 12.7159C11.7737 12.8561 12.0182 12.8454 12.1693 12.6943L12.6979 12.1657C12.849 12.0147 12.8597 11.7665 12.7195 11.6047C11.7018 10.4216 11.1444 8.93637 11.1444 7.36127C11.1516 3.75795 14.0752 0.834301 17.675 0.827109C21.2747 0.834301 24.1983 3.75795 24.2055 7.35767C24.2055 8.93637 23.6517 10.4252 22.6376 11.6083C22.4974 11.7737 22.5045 12.0182 22.6592 12.1693L23.1878 12.6979C23.3388 12.849 23.587 12.8597 23.7488 12.7195C24.9355 11.7018 26.4171 11.1444 27.9922 11.1444C28.1001 11.1444 28.208 11.1012 28.2835 11.0221C28.359 10.943 28.4058 10.8387 28.4058 10.7308H27.9922V11.1444V10.7308Z" fill="#3DD2CC"/>
<path d="M16.1646 26.4783C15.7619 26.881 15.5389 27.4168 15.5389 27.9886C15.5389 29.1646 16.4991 30.1247 17.675 30.1247C18.8509 30.1247 19.8111 29.1682 19.8111 27.9886C19.8111 27.4168 19.5882 26.881 19.1854 26.4783L11.8889 19.1853L13.3992 17.6749L20.6958 24.9715C21.4689 25.7446 21.9472 26.8127 21.9472 27.9922C21.9472 30.3513 20.0341 32.2644 17.675 32.2644C15.3124 32.2644 13.4028 30.3513 13.4028 27.9922C13.4028 26.8127 13.8811 25.7446 14.6543 24.9715L16.1646 26.4783Z" fill="#3DD2CC"/>
<path d="M16.1646 26.4783L15.8733 26.187C15.395 26.6652 15.1253 27.3126 15.1289 27.9886C15.1289 29.3947 16.2725 30.5383 17.6786 30.5383C19.0847 30.5383 20.2282 29.3983 20.2282 27.9886C20.2282 27.8771 20.1851 27.7729 20.106 27.6973C20.0268 27.6182 19.9226 27.5751 19.8147 27.5751V27.9886H20.2282C20.2282 27.309 19.9621 26.6652 19.4838 26.1834L12.475 19.1853L13.3992 18.2575L20.4008 25.2628C21.1021 25.964 21.5336 26.9242 21.5336 27.9922C21.5336 28.1864 21.6667 28.3518 21.8537 28.395C22.0407 28.4381 22.2349 28.3446 22.3176 28.172L21.9436 27.9922H21.53C21.5264 30.1247 19.8003 31.8473 17.6714 31.8509C15.5389 31.8473 13.8163 30.1211 13.8127 27.9922C13.8127 26.9242 14.2443 25.964 14.9419 25.2628L14.6506 24.9715L14.3594 25.2628L15.8697 26.7731L16.1646 26.4783L15.8733 26.187L16.1646 26.4783L16.4559 26.187L14.9455 24.6766C14.7837 24.5148 14.5212 24.5148 14.3594 24.6766C13.5107 25.5217 12.9856 26.6976 12.9856 27.9922C12.9856 30.5814 15.0822 32.678 17.6714 32.678C20.2606 32.678 22.3571 30.5814 22.3571 27.9922C22.3571 27.798 22.2241 27.6326 22.0371 27.5895C21.8501 27.5463 21.6559 27.6398 21.5732 27.8124L21.9472 27.9922H22.3607C22.3607 26.6976 21.8357 25.5253 20.987 24.6766L13.6941 17.3801C13.615 17.3009 13.5107 17.2578 13.4028 17.2578C13.2913 17.2578 13.187 17.3009 13.1115 17.3801L11.6011 18.8904C11.4393 19.0523 11.4393 19.3148 11.6011 19.4766L18.8941 26.7731C19.2213 27.104 19.3975 27.5319 19.4011 27.9922C19.4011 28.1001 19.4443 28.208 19.5234 28.2835C19.6025 28.359 19.7068 28.4058 19.8147 28.4058V27.9922H19.4011C19.4011 28.9416 18.628 29.7112 17.6786 29.7148C16.7292 29.7148 15.956 28.9416 15.956 27.9922C15.956 27.5283 16.1322 27.1004 16.4595 26.7731C16.6213 26.6113 16.6213 26.3488 16.4595 26.187L16.1646 26.4783Z" fill="#3DD2CC"/>
<path d="M17.6714 21.9472L17.9627 21.6559L13.9817 17.675L17.6714 13.9889L21.361 17.675L17.3801 21.6559L17.6714 21.9472L17.9627 21.6559L17.6714 21.9472L17.9627 22.2384L22.2348 17.9662C22.3104 17.8907 22.3571 17.7828 22.3571 17.675C22.3571 17.5671 22.314 17.4592 22.2348 17.3837L17.9627 13.1079C17.8008 12.9461 17.5383 12.9461 17.3765 13.1079L13.1043 17.3801C12.9425 17.5419 12.9425 17.8044 13.1043 17.9662L17.3801 22.242C17.4556 22.3176 17.5635 22.3643 17.6714 22.3643C17.7792 22.3643 17.8871 22.3211 17.9627 22.242L17.6714 21.9472Z" fill="#3DD2CC"/>
</svg>
